<mxfile host="app.diagrams.net" modified="2022-10-04T15:09:52.234Z" agent="5.0 (Windows NT 10.0; Win64; x64) AppleWebKit/537.36 (KHTML, like Gecko) Chrome/106.0.0.0 Safari/537.36" etag="Vgx_Qkt5vqWg62Fu3Ta_" version="20.3.1" type="github">
  <diagram id="C5RBs43oDa-KdzZeNtuy" name="Page-1">
    <mxGraphModel dx="1422" dy="705" grid="1" gridSize="10" guides="1" tooltips="1" connect="1" arrows="1" fold="1" page="1" pageScale="1" pageWidth="1654" pageHeight="2336" math="0" shadow="0">
      <root>
        <mxCell id="WIyWlLk6GJQsqaUBKTNV-0" />
        <mxCell id="WIyWlLk6GJQsqaUBKTNV-1" parent="WIyWlLk6GJQsqaUBKTNV-0" />
        <mxCell id="K3Dla8INAYF5YnP_Z5dk-39" value="회원" style="swimlane;startSize=23;" vertex="1" parent="WIyWlLk6GJQsqaUBKTNV-1">
          <mxGeometry x="840" y="110" width="150" height="270" as="geometry" />
        </mxCell>
        <mxCell id="K3Dla8INAYF5YnP_Z5dk-40" value="&lt;b&gt;회원순번&lt;/b&gt;" style="text;html=1;align=center;verticalAlign=middle;resizable=0;points=[];autosize=1;strokeColor=none;fillColor=none;strokeWidth=4;" vertex="1" parent="K3Dla8INAYF5YnP_Z5dk-39">
          <mxGeometry x="40" y="30" width="70" height="30" as="geometry" />
        </mxCell>
        <mxCell id="K3Dla8INAYF5YnP_Z5dk-41" value="" style="endArrow=none;html=1;rounded=0;" edge="1" parent="K3Dla8INAYF5YnP_Z5dk-39">
          <mxGeometry width="50" height="50" relative="1" as="geometry">
            <mxPoint y="60" as="sourcePoint" />
            <mxPoint x="150" y="60" as="targetPoint" />
          </mxGeometry>
        </mxCell>
        <mxCell id="K3Dla8INAYF5YnP_Z5dk-45" value="&lt;font style=&quot;font-size: 12px;&quot;&gt;이름&lt;/font&gt;" style="text;html=1;align=center;verticalAlign=middle;resizable=0;points=[];autosize=1;strokeColor=none;fillColor=none;fontSize=17;" vertex="1" parent="K3Dla8INAYF5YnP_Z5dk-39">
          <mxGeometry y="60" width="50" height="30" as="geometry" />
        </mxCell>
        <mxCell id="K3Dla8INAYF5YnP_Z5dk-46" value="&lt;font style=&quot;font-size: 12px;&quot;&gt;아이디&lt;/font&gt;" style="text;html=1;align=center;verticalAlign=middle;resizable=0;points=[];autosize=1;strokeColor=none;fillColor=none;fontSize=17;" vertex="1" parent="K3Dla8INAYF5YnP_Z5dk-39">
          <mxGeometry y="90" width="60" height="30" as="geometry" />
        </mxCell>
        <mxCell id="K3Dla8INAYF5YnP_Z5dk-47" value="&lt;font style=&quot;font-size: 12px;&quot;&gt;암호&lt;/font&gt;" style="text;html=1;align=center;verticalAlign=middle;resizable=0;points=[];autosize=1;strokeColor=none;fillColor=none;fontSize=17;" vertex="1" parent="K3Dla8INAYF5YnP_Z5dk-39">
          <mxGeometry y="120" width="50" height="30" as="geometry" />
        </mxCell>
        <mxCell id="K3Dla8INAYF5YnP_Z5dk-48" value="&lt;font style=&quot;font-size: 12px;&quot;&gt;등록일자&lt;/font&gt;" style="text;html=1;align=center;verticalAlign=middle;resizable=0;points=[];autosize=1;strokeColor=none;fillColor=none;fontSize=17;" vertex="1" parent="K3Dla8INAYF5YnP_Z5dk-39">
          <mxGeometry y="150" width="70" height="30" as="geometry" />
        </mxCell>
        <mxCell id="K3Dla8INAYF5YnP_Z5dk-49" value="&lt;font style=&quot;font-size: 12px;&quot;&gt;등록IP&lt;/font&gt;" style="text;html=1;align=center;verticalAlign=middle;resizable=0;points=[];autosize=1;strokeColor=none;fillColor=none;fontSize=17;" vertex="1" parent="K3Dla8INAYF5YnP_Z5dk-39">
          <mxGeometry y="180" width="60" height="30" as="geometry" />
        </mxCell>
        <mxCell id="K3Dla8INAYF5YnP_Z5dk-50" value="&lt;font style=&quot;font-size: 12px;&quot;&gt;수정일자&lt;/font&gt;" style="text;html=1;align=center;verticalAlign=middle;resizable=0;points=[];autosize=1;strokeColor=none;fillColor=none;fontSize=17;" vertex="1" parent="K3Dla8INAYF5YnP_Z5dk-39">
          <mxGeometry y="210" width="70" height="30" as="geometry" />
        </mxCell>
        <mxCell id="K3Dla8INAYF5YnP_Z5dk-51" value="&lt;font style=&quot;font-size: 12px;&quot;&gt;수정IP&lt;/font&gt;" style="text;html=1;align=center;verticalAlign=middle;resizable=0;points=[];autosize=1;strokeColor=none;fillColor=none;fontSize=17;" vertex="1" parent="K3Dla8INAYF5YnP_Z5dk-39">
          <mxGeometry y="240" width="60" height="30" as="geometry" />
        </mxCell>
        <mxCell id="K3Dla8INAYF5YnP_Z5dk-52" value="게시판" style="swimlane;startSize=23;" vertex="1" parent="WIyWlLk6GJQsqaUBKTNV-1">
          <mxGeometry x="450" y="110" width="150" height="430" as="geometry" />
        </mxCell>
        <mxCell id="K3Dla8INAYF5YnP_Z5dk-53" value="&lt;b&gt;게시판순번&lt;/b&gt;" style="text;html=1;align=center;verticalAlign=middle;resizable=0;points=[];autosize=1;strokeColor=none;fillColor=none;strokeWidth=4;" vertex="1" parent="K3Dla8INAYF5YnP_Z5dk-52">
          <mxGeometry x="35" y="30" width="80" height="30" as="geometry" />
        </mxCell>
        <mxCell id="K3Dla8INAYF5YnP_Z5dk-54" value="" style="endArrow=none;html=1;rounded=0;" edge="1" parent="K3Dla8INAYF5YnP_Z5dk-52">
          <mxGeometry width="50" height="50" relative="1" as="geometry">
            <mxPoint y="60" as="sourcePoint" />
            <mxPoint x="150" y="60" as="targetPoint" />
          </mxGeometry>
        </mxCell>
        <mxCell id="K3Dla8INAYF5YnP_Z5dk-56" value="&lt;font style=&quot;font-size: 12px;&quot;&gt;아이디(FK)&lt;/font&gt;" style="text;html=1;align=center;verticalAlign=middle;resizable=0;points=[];autosize=1;strokeColor=none;fillColor=none;fontSize=17;" vertex="1" parent="K3Dla8INAYF5YnP_Z5dk-52">
          <mxGeometry y="180" width="80" height="30" as="geometry" />
        </mxCell>
        <mxCell id="K3Dla8INAYF5YnP_Z5dk-58" value="&lt;font style=&quot;font-size: 12px;&quot;&gt;등록일자&lt;/font&gt;" style="text;html=1;align=center;verticalAlign=middle;resizable=0;points=[];autosize=1;strokeColor=none;fillColor=none;fontSize=17;" vertex="1" parent="K3Dla8INAYF5YnP_Z5dk-52">
          <mxGeometry y="210" width="70" height="30" as="geometry" />
        </mxCell>
        <mxCell id="K3Dla8INAYF5YnP_Z5dk-59" value="&lt;font style=&quot;font-size: 12px;&quot;&gt;등록IP&lt;/font&gt;" style="text;html=1;align=center;verticalAlign=middle;resizable=0;points=[];autosize=1;strokeColor=none;fillColor=none;fontSize=17;" vertex="1" parent="K3Dla8INAYF5YnP_Z5dk-52">
          <mxGeometry y="240" width="60" height="30" as="geometry" />
        </mxCell>
        <mxCell id="K3Dla8INAYF5YnP_Z5dk-60" value="&lt;font style=&quot;font-size: 12px;&quot;&gt;수정일자&lt;/font&gt;" style="text;html=1;align=center;verticalAlign=middle;resizable=0;points=[];autosize=1;strokeColor=none;fillColor=none;fontSize=17;" vertex="1" parent="K3Dla8INAYF5YnP_Z5dk-52">
          <mxGeometry y="270" width="70" height="30" as="geometry" />
        </mxCell>
        <mxCell id="K3Dla8INAYF5YnP_Z5dk-61" value="&lt;font style=&quot;font-size: 12px;&quot;&gt;수정IP&lt;/font&gt;" style="text;html=1;align=center;verticalAlign=middle;resizable=0;points=[];autosize=1;strokeColor=none;fillColor=none;fontSize=17;" vertex="1" parent="K3Dla8INAYF5YnP_Z5dk-52">
          <mxGeometry y="300" width="60" height="30" as="geometry" />
        </mxCell>
        <mxCell id="K3Dla8INAYF5YnP_Z5dk-70" value="&lt;span style=&quot;font-size: 12px;&quot;&gt;제목&lt;/span&gt;" style="text;html=1;align=center;verticalAlign=middle;resizable=0;points=[];autosize=1;strokeColor=none;fillColor=none;fontSize=17;" vertex="1" parent="K3Dla8INAYF5YnP_Z5dk-52">
          <mxGeometry y="60" width="50" height="30" as="geometry" />
        </mxCell>
        <mxCell id="K3Dla8INAYF5YnP_Z5dk-71" value="&lt;span style=&quot;font-size: 12px;&quot;&gt;내용&lt;/span&gt;" style="text;html=1;align=center;verticalAlign=middle;resizable=0;points=[];autosize=1;strokeColor=none;fillColor=none;fontSize=17;" vertex="1" parent="K3Dla8INAYF5YnP_Z5dk-52">
          <mxGeometry y="90" width="50" height="30" as="geometry" />
        </mxCell>
        <mxCell id="K3Dla8INAYF5YnP_Z5dk-72" value="&lt;span style=&quot;font-size: 12px;&quot;&gt;내용&lt;/span&gt;" style="text;html=1;align=center;verticalAlign=middle;resizable=0;points=[];autosize=1;strokeColor=none;fillColor=none;fontSize=17;" vertex="1" parent="K3Dla8INAYF5YnP_Z5dk-52">
          <mxGeometry y="120" width="50" height="30" as="geometry" />
        </mxCell>
        <mxCell id="K3Dla8INAYF5YnP_Z5dk-69" value="" style="edgeStyle=entityRelationEdgeStyle;fontSize=12;html=1;endArrow=ERmany;rounded=0;entryX=0;entryY=0.667;entryDx=0;entryDy=0;entryPerimeter=0;" edge="1" parent="WIyWlLk6GJQsqaUBKTNV-1" target="K3Dla8INAYF5YnP_Z5dk-47">
          <mxGeometry width="100" height="100" relative="1" as="geometry">
            <mxPoint x="600" y="250" as="sourcePoint" />
            <mxPoint x="770" y="250" as="targetPoint" />
          </mxGeometry>
        </mxCell>
        <mxCell id="K3Dla8INAYF5YnP_Z5dk-73" value="첨부파일" style="swimlane;startSize=23;" vertex="1" parent="WIyWlLk6GJQsqaUBKTNV-1">
          <mxGeometry x="450" y="680" width="150" height="310" as="geometry" />
        </mxCell>
        <mxCell id="K3Dla8INAYF5YnP_Z5dk-74" value="&lt;b&gt;첨부파일순번&lt;/b&gt;" style="text;html=1;align=center;verticalAlign=middle;resizable=0;points=[];autosize=1;strokeColor=none;fillColor=none;strokeWidth=4;" vertex="1" parent="K3Dla8INAYF5YnP_Z5dk-73">
          <mxGeometry x="25" y="30" width="100" height="30" as="geometry" />
        </mxCell>
        <mxCell id="K3Dla8INAYF5YnP_Z5dk-75" value="" style="endArrow=none;html=1;rounded=0;" edge="1" parent="K3Dla8INAYF5YnP_Z5dk-73">
          <mxGeometry width="50" height="50" relative="1" as="geometry">
            <mxPoint y="60" as="sourcePoint" />
            <mxPoint x="150" y="60" as="targetPoint" />
          </mxGeometry>
        </mxCell>
        <mxCell id="K3Dla8INAYF5YnP_Z5dk-76" value="&lt;font style=&quot;font-size: 12px;&quot;&gt;실제파일명&lt;/font&gt;" style="text;html=1;align=center;verticalAlign=middle;resizable=0;points=[];autosize=1;strokeColor=none;fillColor=none;fontSize=17;" vertex="1" parent="K3Dla8INAYF5YnP_Z5dk-73">
          <mxGeometry y="60" width="80" height="30" as="geometry" />
        </mxCell>
        <mxCell id="K3Dla8INAYF5YnP_Z5dk-77" value="&lt;font style=&quot;font-size: 12px;&quot;&gt;저장파일명&lt;/font&gt;" style="text;html=1;align=center;verticalAlign=middle;resizable=0;points=[];autosize=1;strokeColor=none;fillColor=none;fontSize=17;" vertex="1" parent="K3Dla8INAYF5YnP_Z5dk-73">
          <mxGeometry y="90" width="80" height="30" as="geometry" />
        </mxCell>
        <mxCell id="K3Dla8INAYF5YnP_Z5dk-78" value="&lt;font style=&quot;font-size: 12px;&quot;&gt;확장자&lt;/font&gt;" style="text;html=1;align=center;verticalAlign=middle;resizable=0;points=[];autosize=1;strokeColor=none;fillColor=none;fontSize=17;" vertex="1" parent="K3Dla8INAYF5YnP_Z5dk-73">
          <mxGeometry y="120" width="60" height="30" as="geometry" />
        </mxCell>
        <mxCell id="K3Dla8INAYF5YnP_Z5dk-79" value="&lt;font style=&quot;font-size: 12px;&quot;&gt;등록일자&lt;/font&gt;" style="text;html=1;align=center;verticalAlign=middle;resizable=0;points=[];autosize=1;strokeColor=none;fillColor=none;fontSize=17;" vertex="1" parent="K3Dla8INAYF5YnP_Z5dk-73">
          <mxGeometry y="240" width="70" height="30" as="geometry" />
        </mxCell>
        <mxCell id="K3Dla8INAYF5YnP_Z5dk-80" value="&lt;font style=&quot;font-size: 12px;&quot;&gt;등록IP&lt;/font&gt;" style="text;html=1;align=center;verticalAlign=middle;resizable=0;points=[];autosize=1;strokeColor=none;fillColor=none;fontSize=17;" vertex="1" parent="K3Dla8INAYF5YnP_Z5dk-73">
          <mxGeometry y="270" width="60" height="30" as="geometry" />
        </mxCell>
        <mxCell id="K3Dla8INAYF5YnP_Z5dk-83" value="&lt;span style=&quot;font-size: 12px;&quot;&gt;크기&lt;/span&gt;" style="text;html=1;align=center;verticalAlign=middle;resizable=0;points=[];autosize=1;strokeColor=none;fillColor=none;fontSize=17;" vertex="1" parent="K3Dla8INAYF5YnP_Z5dk-73">
          <mxGeometry y="150" width="50" height="30" as="geometry" />
        </mxCell>
        <mxCell id="K3Dla8INAYF5YnP_Z5dk-84" value="&lt;font style=&quot;font-size: 12px;&quot;&gt;저장경로&lt;/font&gt;" style="text;html=1;align=center;verticalAlign=middle;resizable=0;points=[];autosize=1;strokeColor=none;fillColor=none;fontSize=17;" vertex="1" parent="K3Dla8INAYF5YnP_Z5dk-73">
          <mxGeometry y="180" width="70" height="30" as="geometry" />
        </mxCell>
        <mxCell id="K3Dla8INAYF5YnP_Z5dk-85" value="&lt;span style=&quot;font-size: 12px;&quot;&gt;게시판순번(FK)&lt;/span&gt;" style="text;html=1;align=center;verticalAlign=middle;resizable=0;points=[];autosize=1;strokeColor=none;fillColor=none;fontSize=17;" vertex="1" parent="K3Dla8INAYF5YnP_Z5dk-73">
          <mxGeometry y="210" width="110" height="30" as="geometry" />
        </mxCell>
        <mxCell id="K3Dla8INAYF5YnP_Z5dk-100" value="" style="fontSize=12;html=1;endArrow=ERmany;rounded=0;verticalAlign=middle;exitX=0.5;exitY=1;exitDx=0;exitDy=0;" edge="1" parent="WIyWlLk6GJQsqaUBKTNV-1" source="K3Dla8INAYF5YnP_Z5dk-52">
          <mxGeometry width="100" height="100" relative="1" as="geometry">
            <mxPoint x="510" y="730" as="sourcePoint" />
            <mxPoint x="525" y="680" as="targetPoint" />
          </mxGeometry>
        </mxCell>
      </root>
    </mxGraphModel>
  </diagram>
</mxfile>
